/* XPM */
static const char * tabboz_xpm[] = {
"32 32 7 1",
" 	c None",
".	c #000000",
"+	c #FF0000",
"@	c #800000",
"#	c #808080",
"$	c #C0C0C0",
"%	c #FFFFFF",
"                                ",
"                                ",
"                       ....     ",
"                       .++@     ",
"                       @@@@     ",
"   #       ........  ..         ",
"   .####  .$$$$#$#$..           ",
"    ..###.$$$$$$#$#$..          ",
"       ...$$$$$$$#$#..####      ",
"        .$$$$$$$$$#$#...####    ",
"        .$$........#$.  ....    ",
"       ....++++++++....         ",
"       .++++++++++@+@+.         ",
"        .++++++++++@+.          ",
"        .++........+@.          ",
"       @+.+.%%%%%$.@.+@         ",
"       .+@++.%%%$.++@@.         ",
"       .++@++.++.++@@+.         ",
"       .++.++++++++.+@.         ",
"       @++@........@@+@         ",
"        @@+@.###$.@+@@          ",
"        .++@.####.+@+.          ",
"        .++@.###$.@+@.          ",
"         ....####....           ",
"          ...###$...            ",
"          .#.####.#.            ",
"         .# .###$. #.           ",
"         .# .####. #.           ",
"        .#   .#$.   #.          ",
"        .#   ....   #.          ",
"                                ",
"                                "};
